<svg width="100" height="36" viewBox="0 0 100 36" fill="none" xmlns="http://www.w3.org/2000/svg">
<g clip-path="url(#clip0)">
<g clip-path="url(#clip1)">
<path d="M19.3733 23.7292H23.2979C24.2107 23.7249 25.1205 23.8318 26.0074 24.0476C26.8156 24.2383 27.5774 24.5892 28.2477 25.0795C28.8949 25.5667 29.4156 26.2023 29.7657 26.9328C30.1404 27.6936 30.3278 28.6162 30.3278 29.7006C30.3278 30.6624 30.1468 31.5094 29.7847 32.2417C29.4358 32.9564 28.9349 33.5862 28.3169 34.0869C27.6838 34.5942 26.9612 34.9783 26.1866 35.2193C25.3674 35.4786 24.5129 35.6087 23.6537 35.6049H19.3767L19.3733 23.7292ZM21.9897 33.1894H23.3475C23.9146 33.1936 24.4803 33.1319 25.0332 33.0055C25.5208 32.8977 25.9807 32.6896 26.3835 32.3945C26.7711 32.0998 27.0795 31.7135 27.281 31.2702C27.4987 30.8068 27.6075 30.2392 27.6075 29.5676C27.6075 28.9865 27.4987 28.4805 27.281 28.0496C27.0725 27.6315 26.7705 27.267 26.3984 26.9844C26.0086 26.6951 25.5678 26.4819 25.099 26.3558C24.5881 26.2142 24.0602 26.1436 23.5301 26.146H21.9897V33.1894Z" fill="black"/>
<path d="M31.467 29.6674C31.467 28.7169 31.6254 27.8559 31.9423 27.0842C32.2427 26.341 32.6974 25.67 33.2763 25.1154C33.8603 24.5649 34.5509 24.1398 35.3055 23.8663C36.967 23.2843 38.777 23.2843 40.4385 23.8663C41.1933 24.1398 41.8841 24.5649 42.4684 25.1154C43.0468 25.6702 43.5012 26.3412 43.8017 27.0842C44.1185 27.8536 44.277 28.7147 44.277 29.6674C44.277 30.6201 44.1185 31.4811 43.8017 32.2505C43.5013 32.9936 43.0469 33.6646 42.4684 34.2193C41.8843 34.7703 41.1935 35.1957 40.4385 35.4691C38.7768 36.0503 36.9671 36.0503 35.3055 35.4691C34.5507 35.1957 33.8601 34.7703 33.2763 34.2193C32.6974 33.6648 32.2427 32.9938 31.9423 32.2505C31.6259 31.4789 31.4675 30.6178 31.467 29.6674ZM34.1826 29.6674C34.1761 30.1903 34.2642 30.7101 34.4426 31.2017C34.6065 31.651 34.8606 32.062 35.1894 32.4094C35.5179 32.7536 35.915 33.0251 36.355 33.2064C37.3316 33.5866 38.4152 33.5866 39.3917 33.2064C39.8317 33.0251 40.2288 32.7536 40.5573 32.4094C40.8859 32.0618 41.14 31.6509 41.3041 31.2017C41.6508 30.2107 41.6508 29.1315 41.3041 28.1406C41.1414 27.6883 40.8871 27.2744 40.5573 26.9247C40.2284 26.5809 39.8314 26.3094 39.3917 26.1277C38.4152 25.7475 37.3316 25.7475 36.355 26.1277C35.9153 26.3094 35.5183 26.5809 35.1894 26.9247C34.8593 27.2742 34.6051 27.6881 34.4426 28.1406C34.2664 28.6301 34.179 29.1471 34.1846 29.6674H34.1826Z" fill="black"/>
<path d="M44.8186 23.7291H47.6699L49.5654 31.3449H49.5986L52.0813 23.7291H54.5145L56.9802 31.5458H57.0134L59.01 23.7291H61.6577L58.1879 35.6049H55.8559L53.2395 27.3856H53.2062L50.5891 35.6049H48.3413L44.8186 23.7291Z" fill="black"/>
<path d="M62.8342 23.7291H66.3902L71.4391 31.9817H71.4731V23.7291H74.0895V35.6049H70.6679L65.4846 27.1507H65.4513V35.6049H62.8342V23.7291Z" fill="black"/>
<path d="M76.0305 35.6035V34.5995L85.5723 23.3978C87.0142 21.7232 88.1604 20.2039 89.0108 18.8398C89.8612 17.4757 90.2862 16.0978 90.2858 14.706C90.2858 13.7556 90.1308 12.8993 89.8207 12.1371C89.5285 11.4028 89.0864 10.7374 88.5227 10.1833C87.958 9.63714 87.2846 9.21593 86.5465 8.94705C85.7584 8.65923 84.9251 8.51528 84.0862 8.52207C82.5881 8.52207 81.2708 8.91492 80.1344 9.70061C78.9979 10.4863 78.1973 11.652 77.7325 13.1976L76.9178 12.926C77.408 11.2786 78.2989 10.0113 79.5906 9.12424C80.8823 8.23716 82.3799 7.79294 84.0835 7.79158C85.0568 7.78051 86.0237 7.95064 86.9348 8.29328C88.1777 8.76419 89.2466 9.60432 89.9978 10.7007C90.7491 11.7972 91.1467 13.0973 91.1371 14.4263C91.1428 15.2355 91.0319 16.0412 90.8078 16.8187C90.5672 17.6106 90.2283 18.3692 89.799 19.0767C89.2958 19.9088 88.7394 20.7075 88.133 21.4678C87.4745 22.3041 86.7191 23.2236 85.8669 24.2261L76.8805 34.7536H91.3672V35.6035H76.0305Z" fill="black"/>
<path d="M99.0937 35.6036V9.25734L93.9165 13.6613L93.4148 13.0041L99.0937 8.25191H99.943V35.6036H99.0937Z" fill="black"/>
<path d="M13.7331 5.51523C13.7181 5.583 13.6926 5.64804 13.6577 5.70803C13.1268 6.32514 12.4826 6.63403 11.6109 6.63403C11.2148 6.64279 10.8214 6.56834 10.456 6.4155C10.0905 6.26265 9.76121 6.03482 9.48935 5.74673C8.95846 5.16741 8.69324 4.43421 8.69369 3.54713C8.6826 2.74811 8.95054 1.97025 9.45133 1.34754C9.98176 0.730659 10.6638 0.421992 11.4975 0.421539C12.4072 0.421539 13.0888 0.693094 13.6197 1.27083C13.6577 1.34754 13.695 1.38624 13.695 1.42493C13.695 1.46363 13.5817 1.69649 13.3923 2.00402C13.2029 2.35094 13.0888 2.54713 13.0134 2.58244C12.9754 2.62113 12.9754 2.62113 12.9374 2.62113C12.8576 2.57586 12.7816 2.52433 12.71 2.46702C12.5777 2.33813 12.4237 2.23357 12.2551 2.15813C12.0446 2.05268 11.8117 1.9998 11.5762 2.00402C11.1594 2.00402 10.8559 2.15813 10.5905 2.46702C10.3631 2.73858 10.2511 3.12283 10.2511 3.54713C10.241 3.93509 10.3605 4.31535 10.5905 4.62792C10.8179 4.93614 11.1594 5.09092 11.5762 5.09092C11.8117 5.09488 12.0446 5.04177 12.2551 4.93614C12.4072 4.85942 12.5586 4.78203 12.672 4.62792C12.7273 4.5675 12.7911 4.51537 12.8614 4.47313C12.8994 4.47313 12.8994 4.47313 12.9374 4.51183C12.9754 4.55053 13.0888 4.74333 13.3162 5.05494C13.6197 5.32242 13.7331 5.47653 13.7331 5.51523Z" fill="black"/>
<path d="M19.7203 3.50848C19.7203 4.39646 19.4555 5.12898 18.8873 5.70807C18.3184 6.32518 17.5974 6.59537 16.727 6.59537C15.8567 6.59537 15.1391 6.28716 14.5668 5.66937C13.9986 5.09096 13.7332 4.35776 13.7332 3.46978C13.7332 2.5818 13.9986 1.84928 14.5668 1.27087C15.1357 0.653079 15.8558 0.344412 16.727 0.344864C17.5987 0.344864 18.2803 0.653079 18.8492 1.27087C19.4148 1.87808 19.7264 2.67872 19.7203 3.50848V3.50848ZM18.1289 3.50848C18.1289 3.08417 18.0156 2.73726 17.7501 2.42837C17.6252 2.27968 17.4683 2.16113 17.2912 2.08155C17.114 2.00197 16.9212 1.96341 16.727 1.96876C16.5346 1.96675 16.3445 2.01132 16.1729 2.09868C16.0014 2.18604 15.8535 2.31359 15.742 2.47046C15.4765 2.77867 15.3625 3.12626 15.3625 3.55057C15.3625 3.97487 15.4765 4.36116 15.742 4.63135C15.8672 4.78062 16.0246 4.89958 16.2024 4.97929C16.3802 5.05901 16.5737 5.09742 16.7685 5.09164C16.9567 5.09242 17.1428 5.05128 17.3132 4.9712C17.4836 4.89111 17.634 4.77409 17.7535 4.62864C17.9776 4.24167 18.1262 3.89476 18.1262 3.50848H18.1289Z" fill="black"/>
<path d="M25.5186 3.46977C25.5272 4.26337 25.2438 5.03244 24.7223 5.63067C24.2681 6.17378 23.6238 6.47995 22.7535 6.47995H20.2145C20.1989 6.48205 20.183 6.48047 20.1681 6.47534C20.1532 6.4702 20.1397 6.46165 20.1286 6.45038C20.1176 6.4391 20.1094 6.4254 20.1046 6.41038C20.0998 6.39536 20.0986 6.37943 20.1011 6.36386C20.1011 6.05565 20.1011 5.59265 20.1384 4.97486C20.1758 4.35708 20.1765 3.89475 20.1765 3.58586C20.1765 3.27697 20.1765 2.77527 20.1384 2.11947C20.1004 1.46366 20.1011 1.00066 20.1011 0.65307C20.1011 0.576355 20.1384 0.576355 20.2145 0.537659C20.4039 0.498962 20.7447 0.498962 21.1995 0.498962C22.0712 0.498962 22.6021 0.498962 22.8669 0.537659C23.5111 0.614373 24.042 0.769159 24.4209 1.03936C24.7882 1.32056 25.0756 1.69291 25.2545 2.11947C25.4046 2.57975 25.5186 3.00677 25.5186 3.46977ZM23.9266 3.46977C23.9338 3.04699 23.7854 2.63631 23.5098 2.31566C23.2441 2.00745 22.8653 1.85312 22.3733 1.85266C21.9565 1.85266 21.7291 1.89136 21.7291 2.00745V4.93617C21.7291 5.05226 21.9565 5.12897 22.408 5.12897C22.9008 5.12897 23.2796 4.97486 23.5451 4.62795C23.7752 4.39645 23.9266 3.97147 23.9266 3.46977Z" fill="black"/>
<path d="M30.1791 5.16765C30.1791 5.28374 30.141 5.51524 30.103 5.82414C30.0657 6.17105 29.9896 6.40255 29.9516 6.44124C29.934 6.46414 29.9116 6.48285 29.8858 6.496C29.8601 6.50915 29.8318 6.51642 29.8029 6.51728H29.6889C29.4995 6.47858 28.8932 6.47858 27.9082 6.47858H26.0107C25.9347 6.47858 25.8593 6.43989 25.8593 6.36249C25.8593 6.05428 25.8593 5.59128 25.8973 4.93683C25.9347 4.31972 25.9346 3.81803 25.9346 3.51117C25.9346 3.20431 25.9333 2.57974 25.8973 1.69718C25.8973 1.46568 25.8593 1.11809 25.8593 0.693789V0.614359C25.8569 0.598841 25.8582 0.58299 25.8631 0.568058C25.8679 0.553127 25.8761 0.539525 25.8871 0.528329C25.8981 0.517133 25.9116 0.50865 25.9264 0.50355C25.9413 0.498451 25.9571 0.496875 25.9727 0.498948H29.6862C29.8382 0.498948 29.9136 0.537645 29.9516 0.653056C29.9516 0.730449 29.9896 0.92461 30.0277 1.23215C30.0518 1.42402 30.0645 1.61717 30.0657 1.81056C30.0657 1.88795 30.0277 1.88795 29.9896 1.88795H29.9136C29.2461 1.82633 28.5757 1.80049 27.9055 1.81056C27.7541 1.81056 27.678 1.84925 27.64 1.92665C27.6197 2.02853 27.607 2.13178 27.602 2.23554C27.5965 2.36828 27.6226 2.50043 27.678 2.62115C27.7557 2.67512 27.8489 2.70229 27.9435 2.69854H28.2829C28.6371 2.70499 28.9913 2.69207 29.344 2.65984C29.4215 2.66054 29.4985 2.64744 29.5714 2.62115H29.8029C29.8186 2.61905 29.8345 2.62063 29.8494 2.62577C29.8643 2.6309 29.8778 2.63945 29.8888 2.65073C29.8998 2.662 29.908 2.6757 29.9128 2.69072C29.9176 2.70574 29.9188 2.72167 29.9163 2.73724C29.9163 2.65984 29.879 2.89134 29.841 3.39304C29.8094 3.62312 29.7966 3.85539 29.8029 4.08754C29.8029 4.12624 29.7649 4.16494 29.6889 4.16494C29.5619 4.15999 29.4354 4.14707 29.3101 4.12624C29.1587 4.12624 28.7799 4.08754 28.2116 4.08754H27.7568C27.6427 4.08754 27.5674 4.12624 27.5674 4.16494V4.43649C27.5674 4.66799 27.5674 4.78408 27.6047 4.86147C27.6427 4.97689 27.8321 5.01558 28.1356 5.05428H28.7418C28.9573 5.05756 29.1726 5.04462 29.3861 5.01558C29.5997 4.98747 29.815 4.97453 30.0304 4.97688C30.1424 5.01354 30.1791 5.05224 30.1791 5.16765Z" fill="black"/>
<path d="M41.3196 6.40257C41.3222 6.42347 41.3202 6.44468 41.3137 6.46473C41.3073 6.48477 41.2965 6.50317 41.2823 6.51866C41.242 6.52334 41.2032 6.53629 41.1682 6.55668C41.0168 6.55668 40.7894 6.59538 40.4893 6.59538C40.0725 6.59538 39.8104 6.59538 39.7317 6.55668C39.7161 6.55875 39.7003 6.55718 39.6855 6.55208C39.6706 6.54698 39.6572 6.5385 39.6462 6.5273C39.6352 6.5161 39.6269 6.5025 39.6221 6.48757C39.6173 6.47264 39.616 6.45679 39.6183 6.44127C39.6183 6.20977 39.6183 5.89816 39.6563 5.47657C39.6944 5.05498 39.6937 4.74337 39.6937 4.51187C39.6972 4.47608 39.6921 4.43996 39.6791 4.40646C39.666 4.37296 39.6452 4.34302 39.6183 4.31907C39.5423 4.28037 39.2008 4.28037 38.6326 4.28037C38.0644 4.28037 37.7235 4.28037 37.6475 4.31907C37.5715 4.31907 37.5715 4.39646 37.5715 4.51187C37.5715 4.74337 37.5715 5.05498 37.6095 5.47657C37.6095 5.90088 37.6475 6.20977 37.6475 6.44127C37.6475 6.51866 37.6095 6.55668 37.5341 6.59538C37.4581 6.59538 37.1947 6.63407 36.7758 6.63407C36.397 6.63407 36.1696 6.63407 36.0969 6.59538C36.0814 6.59745 36.0656 6.59588 36.0507 6.59078C36.0359 6.58568 36.0224 6.57719 36.0114 6.566C36.0004 6.5548 35.9922 6.5412 35.9873 6.52627C35.9825 6.51134 35.9812 6.49548 35.9836 6.47997C35.9836 6.17107 35.9836 5.74677 36.0216 5.16768C36.0596 4.58859 36.0596 4.12627 36.0596 3.81737C36.0596 3.50848 36.0596 3.04548 36.0216 2.39171C35.9836 1.7746 35.9836 1.27291 35.9836 0.96605C35.9836 0.888657 36.0216 0.888657 36.0596 0.888657H37.5749C37.5947 0.890251 37.6134 0.898955 37.6273 0.91317C37.6413 0.927386 37.6497 0.94616 37.6509 0.96605C37.6509 1.15885 37.6509 1.46775 37.6129 1.89205C37.5749 2.31636 37.5749 2.58655 37.5749 2.81805C37.5749 2.89545 37.6129 2.97284 37.6509 2.97284C37.7269 3.01086 38.0677 3.01086 38.674 3.01086C39.2429 3.01086 39.5837 3.01086 39.6597 2.97284C39.7351 2.97284 39.7731 2.89545 39.7731 2.81805C39.7757 2.52183 39.763 2.22567 39.7351 1.93075C39.7072 1.63583 39.6945 1.33967 39.6971 1.04344C39.6947 1.02784 39.696 1.0119 39.7009 0.996885C39.7058 0.981873 39.7141 0.968198 39.7251 0.95694C39.7362 0.945682 39.7497 0.937149 39.7646 0.932014C39.7796 0.92688 39.7955 0.925284 39.8111 0.927353H41.251C41.2666 0.9254 41.2825 0.927082 41.2973 0.932268C41.3121 0.937454 41.3256 0.946003 41.3366 0.957247C41.3475 0.96849 41.3558 0.982122 41.3606 0.997076C41.3654 1.01203 41.3667 1.0279 41.3644 1.04344C41.3644 1.35166 41.3644 1.81466 41.3264 2.4691C41.2891 3.08621 41.2891 3.58791 41.2891 3.89477C41.2891 4.20162 41.2891 4.62796 41.3264 5.24507L41.3196 6.40257Z" fill="black"/>
<path d="M45.9429 5.24507C45.9429 5.36116 45.9049 5.59266 45.8668 5.90088C45.8295 6.24847 45.7915 6.44398 45.7535 6.51866C45.7356 6.54193 45.7127 6.5609 45.6865 6.57417C45.6603 6.58744 45.6314 6.59469 45.6021 6.59538H45.4853C45.2959 6.55668 44.7277 6.55668 43.7806 6.55668H41.9612C41.8859 6.55668 41.8098 6.51866 41.8098 6.44127C41.8098 6.13238 41.8098 5.66938 41.8478 5.05227C41.8858 4.43516 41.8872 3.97148 41.8872 3.66598C41.8872 3.36048 41.8872 2.778 41.8492 1.92939C41.8492 1.69789 41.8112 1.38628 41.8112 0.964691V0.923279C41.8112 0.845886 41.8492 0.845886 41.9252 0.845886H45.5233C45.6754 0.845886 45.7507 0.884583 45.7507 1.00067C45.7507 1.07807 45.7888 1.27223 45.8268 1.57908C45.8515 1.77113 45.864 1.96455 45.8641 2.15817C45.863 2.178 45.8548 2.19677 45.841 2.211C45.8271 2.22523 45.8086 2.23396 45.7888 2.23557H45.7127C45.0706 2.17405 44.4256 2.14822 43.7806 2.15817C43.6286 2.15817 43.5532 2.19687 43.5152 2.27358C43.4949 2.37548 43.4822 2.47872 43.4772 2.58248C43.4717 2.71543 43.4977 2.8478 43.5532 2.96876C43.5905 3.00678 43.6666 3.04548 43.818 3.04548H44.1574C44.4989 3.05191 44.8405 3.03899 45.1805 3.00678C45.2579 3.00739 45.3349 2.99452 45.4079 2.96876H45.6353C45.7107 2.96876 45.7487 3.00678 45.7487 3.04548C45.7487 3.00678 45.7107 3.20026 45.6734 3.66327C45.6418 3.88036 45.629 4.09978 45.6353 4.31907C45.6353 4.35777 45.5973 4.39646 45.5213 4.39646C45.3943 4.39152 45.2678 4.3786 45.1425 4.35777C44.9911 4.35777 44.6496 4.31907 44.0814 4.31907H43.6645C43.5512 4.31907 43.4751 4.35777 43.4751 4.39646V4.66802C43.4751 4.8615 43.4751 5.01561 43.5131 5.0543C43.5512 5.16971 43.7406 5.20841 44.0434 5.24711H44.6496C44.865 5.24948 45.0803 5.23655 45.2939 5.20841C45.5073 5.17937 45.7227 5.16644 45.9381 5.16971C45.9049 5.12966 45.9429 5.16768 45.9429 5.24507Z" fill="black"/>
<path d="M50.4148 2.15817C50.4148 2.19686 50.3767 2.19686 50.3387 2.19686C50.1493 2.19686 49.8458 2.19686 49.429 2.15817C49.0122 2.11947 48.7094 2.11947 48.52 2.11947C48.2545 2.11947 48.1031 2.11947 48.0651 2.15817C47.9518 2.19686 47.9137 2.35097 47.9137 2.54377C47.9137 2.81533 47.9891 2.93006 48.1031 2.96876C48.1907 2.98706 48.2794 2.99976 48.3686 3.00677C48.6467 3.0092 48.9248 2.99651 49.2016 2.96876C49.4781 2.94056 49.756 2.92764 50.0339 2.93006C50.1099 2.93006 50.186 3.16156 50.186 3.66326C50.186 4.08756 50.186 4.31906 50.148 4.39645C50.1099 4.43447 50.1099 4.47317 50.0339 4.47317C50.0719 4.47317 49.9966 4.47317 49.7691 4.43447C49.4657 4.39645 49.0488 4.39645 48.4426 4.39645H48.1398C47.9877 4.43447 47.9504 4.47317 47.9504 4.58926C47.9504 4.97487 47.9504 5.39917 47.9877 5.93956C48.0257 6.40256 48.0257 6.59537 48.0257 6.55667C48.0257 6.63406 47.9504 6.67276 47.7603 6.67276H47.3862C46.894 6.67276 46.5526 6.67276 46.4012 6.63406C46.3251 6.59537 46.2871 6.55667 46.2871 6.51865C46.2871 6.20976 46.2871 5.74676 46.3251 5.16767C46.3632 4.55056 46.3632 4.12626 46.3632 3.81736C46.3632 3.46977 46.3632 3.00677 46.3251 2.46706C46.2871 1.61777 46.2498 1.19347 46.2498 1.11607V1.07806C46.2473 1.06249 46.2485 1.04656 46.2533 1.03154C46.2581 1.01652 46.2663 1.00282 46.2773 0.991546C46.2883 0.980269 46.3018 0.971721 46.3167 0.966586C46.3316 0.96145 46.3475 0.959869 46.3632 0.961968H48.1819C48.4093 0.961968 48.7128 0.961968 49.1676 0.923271C49.5811 0.882538 49.9219 0.882538 50.1493 0.882538C50.3007 0.882538 50.3767 0.921234 50.3767 1.03732V1.58043C50.3767 1.65783 50.4148 1.77392 50.4148 1.92802C50.3767 1.92667 50.4148 2.04208 50.4148 2.15817Z" fill="black"/>
<path d="M36.4697 4.51184C36.5077 4.55054 36.4697 4.62793 36.4697 4.74334C36.2422 5.59263 35.7093 6.24572 34.8403 6.63404C33.9714 7.02237 33.135 7.05835 32.3393 6.71144C31.5437 6.36453 30.9747 5.74674 30.5959 4.85943C30.2171 3.97213 30.1424 3.12284 30.4065 2.27356C30.672 1.38625 31.2022 0.769143 32.0358 0.382856C32.9456 -0.0414478 33.7405 -0.0801443 34.4988 0.267446C34.5749 0.306142 34.6502 0.344839 34.6502 0.382856C34.6889 0.421553 34.6502 0.69175 34.6129 1.11605C34.5756 1.54036 34.5369 1.81055 34.4988 1.88795C34.4988 1.92664 34.4615 1.92664 34.4235 1.96534C34.3304 1.95908 34.2399 1.93267 34.158 1.88795C33.977 1.81618 33.7846 1.7771 33.5898 1.77254C33.3285 1.76373 33.0687 1.81652 32.8315 1.92664C32.4147 2.11945 32.1872 2.42834 32.0739 2.85265C31.9605 3.23825 32.0358 3.66324 32.2253 4.08754C32.4147 4.51184 32.6801 4.82074 33.0209 5.01354C33.4004 5.20635 33.7792 5.24504 34.1961 5.05224C34.4386 4.94007 34.6476 4.76641 34.8023 4.5485C34.9253 4.39547 35.0273 4.22675 35.1058 4.04681C35.1492 3.95875 35.1871 3.86805 35.2191 3.77525H35.3325C35.4086 3.81395 35.598 3.93004 35.9388 4.16154C36.2802 4.35774 36.4697 4.47315 36.4697 4.51184Z" fill="black"/>
<path d="M14.0685 17.7184C13.6612 18.8623 12.8988 19.8284 11.8058 20.6417C10.7128 21.455 9.56547 21.8637 8.42494 21.8637H0.0366211L0.519988 20.5154H8.90831C9.6965 20.5154 10.4589 20.2357 11.1962 19.7007C11.9334 19.1658 12.4412 18.5059 12.7209 17.7177C12.8389 17.4187 12.8992 17.1002 12.8988 16.7788C12.8988 16.2194 12.7209 15.787 12.3652 15.4312C12.0095 15.1013 11.5505 14.9227 10.9395 14.9227H6.72094C6.21245 14.9227 5.8058 14.7707 5.49894 14.491C5.34874 14.3416 5.23072 14.163 5.15214 13.9663C5.07357 13.7695 5.0361 13.5588 5.04205 13.347C5.04527 13.0687 5.09672 12.7931 5.19412 12.5324C5.43944 11.8368 5.90371 11.2396 6.51727 10.8304C7.15271 10.3728 7.81395 10.1189 8.4745 10.1189H16.8649L16.3815 11.4658H7.99317C7.63744 11.4658 7.28102 11.6186 6.95108 11.8983C6.62046 12.2031 6.46771 12.5337 6.46771 12.8895C6.46771 13.347 6.72207 13.5758 7.23078 13.5758H11.4731C12.3374 13.5758 13.0488 13.8297 13.5824 14.3382C14.1161 14.8467 14.3706 15.5079 14.3706 16.3212C14.3381 16.7991 14.2363 17.2697 14.0685 17.7184V17.7184ZM16.9918 9.73671H8.60349C7.84042 9.73671 7.07803 10.0164 6.34076 10.5514C5.60349 11.0863 5.09501 11.7442 4.81598 12.5337C4.6903 12.8318 4.62124 13.1506 4.61232 13.474C4.61232 14.0334 4.79019 14.4652 5.14592 14.8216C5.50166 15.1515 5.98503 15.3301 6.57158 15.3301H10.8146C11.3231 15.3301 11.7298 15.4821 12.0366 15.7618C12.1863 15.9111 12.3039 16.0894 12.3821 16.2858C12.4603 16.4821 12.4975 16.6924 12.4915 16.9037C12.4879 17.182 12.4365 17.4576 12.3394 17.7184C12.095 18.4144 11.6314 19.0123 11.0183 19.4224C10.3829 19.88 9.72162 20.1339 9.06106 20.1339H0.672059L1.15407 18.7869H9.54375C9.89949 18.7869 10.2552 18.6342 10.5858 18.3545C10.9165 18.0497 11.0692 17.7435 11.0692 17.3633C11.0692 16.9058 10.8149 16.677 10.3061 16.677H6.08686C5.22264 16.677 4.51048 16.4231 3.97688 15.9146C3.44327 15.4061 3.19073 14.7449 3.19073 13.9316C3.20004 13.4527 3.29476 12.9793 3.47043 12.5337C3.87776 11.3898 4.63947 10.4237 5.73248 9.61044C6.82549 8.79713 7.97281 8.38844 9.11334 8.38844H17.5003L16.9918 9.73671Z" fill="#D8273C"/>
<path d="M24.7696 20.1344H24.6685L19.7622 9.73724H19.0765L14.7038 21.8601H13.3562L18.2618 8.36521H21.3379L24.8966 16.0414L27.6923 8.36521H29.0398L24.7696 20.1344ZM25.8654 21.8601H22.7873L19.2286 14.1887L16.4322 21.8601H15.0853L19.3555 10.1154H19.4574L24.3379 20.5152H25.0242L29.4472 8.36317H30.7941L25.8654 21.8601Z" fill="#D8273C"/>
<path d="M39.0304 20.1344H33.0562L32.9543 18.7868H37.3773L36.9455 13.4236L30.1336 21.8602H26.6509L27.1342 20.5126H29.676L38.0643 10.1188H38.268L39.0304 20.1344ZM41.1146 21.8602H33.1838L33.082 20.5126H39.4635L38.5986 9.73728H37.9876L29.6251 20.1344H27.3121L27.7948 18.7868H29.1675L37.5558 8.39037H40.0725L41.1146 21.8602Z" fill="#D8273C"/>
<path d="M51.5628 21.8601H46.7583C45.3089 21.8601 44.1656 21.4528 43.3265 20.6144C42.4623 19.7997 42.0557 18.7081 42.0557 17.3863C42.0557 16.649 42.2077 15.8866 42.4874 15.0984C43.1738 13.243 44.4195 11.6415 46.1989 10.3197C48.0038 8.99818 49.8341 8.33717 51.6897 8.33672H56.4935L55.9851 9.6843H51.1813C49.6816 9.6843 48.2329 10.2179 46.8085 11.26C45.3842 12.3021 44.3944 13.573 43.835 15.0733C43.6062 15.7087 43.4786 16.3184 43.4786 16.9287C43.4786 17.9708 43.835 18.8099 44.5214 19.4705C45.2077 20.131 46.1229 20.4616 47.2668 20.4616H52.0706L51.5628 21.8601ZM52.1982 20.1317H47.3937C46.3259 20.1317 45.4874 19.8262 44.852 19.2166C44.2166 18.6069 43.8859 17.818 43.8859 16.8269C43.8903 16.2459 43.9934 15.6699 44.1908 15.1235C44.6992 13.7257 45.6164 12.5567 46.9613 11.5933C48.2831 10.6273 49.6558 10.1188 51.0285 10.1188H55.833L55.3503 11.4664H50.5458C49.5288 11.4664 48.5374 11.8221 47.5716 12.5336C46.6056 13.2457 45.9192 14.11 45.535 15.1263C45.3901 15.5259 45.3128 15.9469 45.3062 16.372C45.3062 17.0842 45.535 17.6687 46.0183 18.1005C46.4759 18.558 47.1113 18.7868 47.8737 18.7868H52.6816L52.1982 20.1317Z" fill="#D8273C"/>
<path d="M53.7 21.8601H52.3503L57.2567 8.3625H58.6036L53.7 21.8601ZM62.6986 21.8601H60.9932L58.8833 16.4711L56.8228 17.9735L55.3972 21.8628H54.0537L55.6552 17.465L59.7726 14.4148L62.6986 21.8601ZM67.4006 8.38762L55.833 17.0074L58.9851 8.39034H60.332L58.4257 13.7033L65.5431 8.39034L67.4006 8.38762ZM64.8568 21.8601H63.1541L60.1541 14.1609L67.8819 8.39034H69.7631L61.8826 14.2369L64.8568 21.8601Z" fill="#D8273C"/>
</g>
</g>
<defs>
<clipPath id="clip0">
<rect width="100" height="36" fill="white"/>
</clipPath>
<clipPath id="clip1">
<rect width="100" height="35.9131" fill="white"/>
</clipPath>
</defs>
</svg>
